<svg width="12" height="15" viewBox="0 0 12 15" fill="none" xmlns="http://www.w3.org/2000/svg">
<path id="Vector" d="M4.82664 12.3214H12V13.3929H4.82664V12.3214ZM1.32707 12.8571L0.00512394 14.2393L0.727583 15L2.77711 12.8571L0.727583 10.7143L0 11.4696L1.32707 12.8571ZM4.82664 6.96429H12V8.03571H4.82664V6.96429ZM1.32707 7.5L0.00512394 8.88214L0.727583 9.64286L2.77711 7.5L0.727583 5.35714L0 6.1125L1.32707 7.5ZM4.82664 1.60714H12V2.67857H4.82664V1.60714ZM1.32707 2.14286L0.00512394 3.525L0.727583 4.28571L2.77711 2.14286L0.727583 0L0 0.755357L1.32707 2.14286Z" fill="#AFAFAF"/>
</svg>
