<svg width="13" height="13" viewBox="0 0 13 13" fill="none" xmlns="http://www.w3.org/2000/svg">
<g id="Group">
<path id="Vector" d="M6.5 0C6.64776 0 6.78947 0.0586987 6.89396 0.163183C6.99844 0.267668 7.05714 0.409379 7.05714 0.557143C7.05714 0.704906 6.99844 0.846618 6.89396 0.951102C6.78947 1.05559 6.64776 1.11429 6.5 1.11429C5.07162 1.11429 3.70174 1.68171 2.69173 2.69173C1.68171 3.70174 1.11429 5.07162 1.11429 6.5C1.11429 7.92838 1.68171 9.29826 2.69173 10.3083C3.70174 11.3183 5.07162 11.8857 6.5 11.8857C6.64776 11.8857 6.78947 11.9444 6.89396 12.0489C6.99844 12.1534 7.05714 12.2951 7.05714 12.4429C7.05714 12.5906 6.99844 12.7323 6.89396 12.8368C6.78947 12.9413 6.64776 13 6.5 13C4.77609 13 3.12279 12.3152 1.90381 11.0962C0.68482 9.87721 0 8.22391 0 6.5C0 4.77609 0.68482 3.12279 1.90381 1.90381C3.12279 0.68482 4.77609 0 6.5 0Z" fill="#AFAFAF"/>
<path id="Vector_2" d="M9.82046 4.66523C9.72205 4.55962 9.66847 4.41992 9.67102 4.27559C9.67356 4.13125 9.73203 3.99353 9.83411 3.89146C9.93619 3.78938 10.0739 3.7309 10.2182 3.72836C10.3626 3.72581 10.5023 3.77939 10.6079 3.8778L12.8365 6.10637C12.9408 6.21084 12.9994 6.35245 12.9994 6.50009C12.9994 6.64773 12.9408 6.78934 12.8365 6.8938L10.6079 9.12237C10.5569 9.17711 10.4954 9.22102 10.427 9.25147C10.3587 9.28192 10.2849 9.29829 10.2101 9.29961C10.1353 9.30093 10.061 9.28717 9.99162 9.25915C9.92224 9.23113 9.85922 9.18942 9.80632 9.13652C9.75341 9.08361 9.7117 9.02059 9.68368 8.95122C9.65566 8.88184 9.6419 8.80754 9.64322 8.73273C9.64454 8.65792 9.66091 8.58415 9.69137 8.5158C9.72182 8.44746 9.76572 8.38595 9.82046 8.33495L11.0982 7.05723H5.01417C4.86641 7.05723 4.7247 6.99853 4.62021 6.89405C4.51573 6.78956 4.45703 6.64785 4.45703 6.50009C4.45703 6.35233 4.51573 6.21061 4.62021 6.10613C4.7247 6.00164 4.86641 5.94295 5.01417 5.94295H11.0982L9.82046 4.66523Z" fill="#AFAFAF"/>
</g>
</svg>
