<svg width="15" height="15" viewBox="0 0 15 15" fill="none" xmlns="http://www.w3.org/2000/svg">
<g id="Group 37982">
<path id="Vector" d="M1.5 1.5H3V8.25H1.5V1.5Z" fill="#AFAFAF"/>
<path id="Vector_2" d="M3.75 0H0.75C0.551088 0 0.360322 0.0790176 0.21967 0.21967C0.0790176 0.360322 0 0.551088 0 0.75V14.25C0 14.4489 0.0790176 14.6397 0.21967 14.7803C0.360322 14.921 0.551088 15 0.75 15H3.75C3.94891 15 4.13968 14.921 4.28033 14.7803C4.42098 14.6397 4.5 14.4489 4.5 14.25V0.75C4.5 0.551088 4.42098 0.360322 4.28033 0.21967C4.13968 0.0790176 3.94891 0 3.75 0ZM3.75 14.25H0.75V0.75H3.75V14.25Z" fill="#AFAFAF"/>
<path id="Vector_3" d="M6.75 1.5H8.25V8.25H6.75V1.5Z" fill="#AFAFAF"/>
<path id="Vector_4" d="M9 0H6C5.80109 0 5.61032 0.0790176 5.46967 0.21967C5.32902 0.360322 5.25 0.551088 5.25 0.75V14.25C5.25 14.4489 5.32902 14.6397 5.46967 14.7803C5.61032 14.921 5.80109 15 6 15H9C9.19891 15 9.38968 14.921 9.53033 14.7803C9.67098 14.6397 9.75 14.4489 9.75 14.25V0.75C9.75 0.551088 9.67098 0.360322 9.53033 0.21967C9.38968 0.0790176 9.19891 0 9 0ZM9 14.25H6V0.75H9V14.25Z" fill="#AFAFAF"/>
<path id="Vector_5" d="M12 1.5H13.5V8.25H12V1.5Z" fill="#AFAFAF"/>
<path id="Vector_6" d="M14.25 0H11.25C11.0511 0 10.8603 0.0790176 10.7197 0.21967C10.579 0.360322 10.5 0.551088 10.5 0.75V14.25C10.5 14.4489 10.579 14.6397 10.7197 14.7803C10.8603 14.921 11.0511 15 11.25 15H14.25C14.4489 15 14.6397 14.921 14.7803 14.7803C14.921 14.6397 15 14.4489 15 14.25V0.75C15 0.551088 14.921 0.360322 14.7803 0.21967C14.6397 0.0790176 14.4489 0 14.25 0ZM14.25 14.25H11.25V0.75H14.25V14.25Z" fill="#AFAFAF"/>
</g>
</svg>
