<svg width="17" height="16" viewBox="0 0 17 16" fill="none" xmlns="http://www.w3.org/2000/svg">
<path id="Vector" d="M0 1.40013C0 0.62726 0.634667 0 1.41667 0H15.5833C16.3653 0 17 0.62726 17 1.40013V11.4011C17 11.7724 16.8507 12.1286 16.5851 12.3911C16.3194 12.6537 15.9591 12.8012 15.5833 12.8012H7.82324C7.79664 12.8012 7.7703 12.8063 7.74571 12.8163C7.72113 12.8264 7.69878 12.8411 7.67995 12.8596L4.84662 15.6599C4.68152 15.8225 4.47142 15.9331 4.24281 15.9778C4.0142 16.0225 3.77731 15.9994 3.562 15.9112C3.34669 15.8231 3.16259 15.6739 3.03292 15.4826C2.90325 15.2912 2.8338 15.0661 2.83333 14.8358V12.8012H1.41667C1.04094 12.8012 0.680609 12.6537 0.414932 12.3911C0.149256 12.1286 0 11.7724 0 11.4011V1.40013ZM1.41667 1.20011C1.36299 1.20011 1.31152 1.22119 1.27356 1.2587C1.23561 1.29621 1.21429 1.34709 1.21429 1.40013V11.4011C1.21429 11.5115 1.30495 11.6011 1.41667 11.6011H3.44048C3.6015 11.6011 3.75593 11.6643 3.86979 11.7769C3.98365 11.8894 4.04762 12.042 4.04762 12.2012V14.7534L6.82186 12.0116C7.08739 11.7489 7.44759 11.6013 7.82324 11.6011H15.5833C15.637 11.6011 15.6885 11.58 15.7264 11.5425C15.7644 11.505 15.7857 11.4541 15.7857 11.4011V1.40013C15.7857 1.34709 15.7644 1.29621 15.7264 1.2587C15.6885 1.22119 15.637 1.20011 15.5833 1.20011H1.41667ZM8.5 2.80027C8.66102 2.80027 8.81545 2.86349 8.92931 2.97602C9.04318 3.08855 9.10714 3.24118 9.10714 3.40033V6.60063C9.10714 6.75978 9.04318 6.9124 8.92931 7.02494C8.81545 7.13747 8.66102 7.20069 8.5 7.20069C8.33898 7.20069 8.18455 7.13747 8.07069 7.02494C7.95682 6.9124 7.89286 6.75978 7.89286 6.60063V3.40033C7.89286 3.24118 7.95682 3.08855 8.07069 2.97602C8.18455 2.86349 8.33898 2.80027 8.5 2.80027ZM8.5 10.001C8.2853 10.001 8.0794 9.91666 7.92758 9.76662C7.77577 9.61658 7.69048 9.41307 7.69048 9.20088C7.69048 8.98869 7.77577 8.78518 7.92758 8.63514C8.0794 8.4851 8.2853 8.4008 8.5 8.4008C8.7147 8.4008 8.9206 8.4851 9.07242 8.63514C9.22423 8.78518 9.30952 8.98869 9.30952 9.20088C9.30952 9.41307 9.22423 9.61658 9.07242 9.76662C8.9206 9.91666 8.7147 10.001 8.5 10.001Z" fill="#AFAFAF"/>
</svg>
